SplineFontDB: 3.2
FontName: chr_numerals
FullName: chr_numerals
FamilyName: chr_numerals
Weight: Regular
Copyright: Copyright (c) 2022, Craig Cornelius\n
UComments: "2022-2-6: Created with FontForge (http://fontforge.org)"
Version: 001.000
ItalicAngle: 0
UnderlinePosition: -100
UnderlineWidth: 50
Ascent: 800
Descent: 200
InvalidEm: 0
LayerCount: 2
Layer: 0 0 "Back" 1
Layer: 1 0 "Fore" 0
XUID: [1021 341 221541093 9417201]
StyleMap: 0x0000
FSType: 0
OS2Version: 0
OS2_WeightWidthSlopeOnly: 0
OS2_UseTypoMetrics: 1
CreationTime: 1644211910
ModificationTime: 1644821056
OS2TypoAscent: 0
OS2TypoAOffset: 1
OS2TypoDescent: 0
OS2TypoDOffset: 1
OS2TypoLinegap: 90
OS2WinAscent: 0
OS2WinAOffset: 1
OS2WinDescent: 0
OS2WinDOffset: 1
HheadAscent: 0
HheadAOffset: 1
HheadDescent: 0
HheadDOffset: 1
MarkAttachClasses: 1
DEI: 91125
Encoding: Custom
Compacted: 1
UnicodeInterp: none
NameList: AGL For New Fonts
DisplaySize: -128
AntiAlias: 1
FitToEm: 1
WinInfo: 0 8 5
BeginPrivate: 0
EndPrivate
BeginChars: 256 39

StartChar: chrZero
Encoding: 0 62976 1
Width: 664
Flags: W
HStem: 290 40<103.27 153.295> 722 34<475.447 549.658>
VStem: 291 48<-45.7699 196>
LayerCount: 2
Back
Fore
SplineSet
295 196 m 25
 295 196 209 124 195 94 c 0
 181 64 123 -20 137 -62 c 0
 151 -104 133 -154 177 -152 c 0
 221 -150 287 -64 291 -20 c 0
 295 24 293 112 295 196 c 25
347 378 m 25
 347 378 469 450 501 508 c 0
 533 566 571 658 569 666 c 0
 567 674 551 722 523 722 c 0
 495 722 441 702 409 598 c 0
 377 494 371 464 347 378 c 25
59 330 m 25
 59 330 119 322 155 326 c 0
 191 330 309 352 309 352 c 25
 309 352 355 544 369 584 c 0
 383 624 449 756 505 756 c 0
 561 756 597 706 595 680 c 0
 593 654 523 476 489 444 c 0
 455 412 347 334 347 334 c 25
 345 276 l 25
 345 276 381 294 403 290 c 0
 425 286 491 256 495 212 c 0
 499 168 469 164 467 154 c 0
 465 144 455 178 453 192 c 0
 451 206 441 250 393 248 c 0
 345 246 339 234 339 234 c 25
 339 234 339 186 339 130 c 0
 339 74 323 -62 301 -86 c 0
 279 -110 207 -170 179 -174 c 0
 151 -178 89 -142 95 -78 c 0
 101 -14 137 98 177 136 c 0
 217 174 297 248 297 248 c 25
 301 318 l 25
 301 318 227 314 187 302 c 0
 147 290 139 292 123 290 c 0
 107 288 84 314 59 330 c 25
EndSplineSet
Validated: 33
EndChar

StartChar: chrOne
Encoding: 1 62977 2
Width: 494
Flags: W
LayerCount: 2
Back
Fore
SplineSet
571 296 m 1049
597 162 m 1049
65 420 m 25
 395 742 l 25
 395 742 431 710 431 704 c 0
 431 698 305 302 297 264 c 0
 289 226 195 -166 195 -166 c 25
 167 -126 l 25
 167 -126 235 168 247 224 c 0
 259 280 371 622 371 622 c 25
 385 688 l 25
 245 534 l 25
 95 400 l 25
 65 420 l 25
EndSplineSet
Validated: 1
EndChar

StartChar: chrTwo
Encoding: 2 62978 3
Width: 609
Flags: W
LayerCount: 2
Back
Fore
SplineSet
56 380 m 25
 378 734 l 25
 422 728 l 25
 310 240 l 25
 226 -80 l 25
 226 -80 342 58 358 70 c 0
 374 82 530 210 530 210 c 25
 546 182 l 25
 546 182 446 110 434 98 c 0
 422 86 196 -178 196 -178 c 25
 168 -156 l 25
 278 284 l 25
 376 674 l 25
 376 674 248 538 246 536 c 0
 244 534 76 362 76 362 c 25
 56 380 l 25
572 464 m 1049
EndSplineSet
Validated: 1
EndChar

StartChar: chrThree
Encoding: 3 62979 4
Width: 508
Flags: W
VStem: 63 34<-155.694 -91.3038> 201 24<650.274 736>
LayerCount: 2
Back
Fore
SplineSet
-291 958 m 1049
225 748 m 25
 225 748 213 538 209 492 c 0
 205 446 171 216 171 216 c 25
 171 216 241 292 275 288 c 0
 309 284 333 236 331 204 c 0
 329 172 413 296 413 296 c 25
 443 272 l 25
 443 272 355 170 339 136 c 0
 323 102 271 22 271 22 c 25
 233 34 l 25
 233 34 301 148 299 186 c 0
 297 224 281 252 261 248 c 0
 241 244 189 200 173 156 c 0
 157 112 97 -162 97 -162 c 25
 97 -162 59 -156 63 -150 c 0
 67 -144 134 216 138 256 c 0
 142 296 201 736 201 736 c 25
 225 748 l 25
EndSplineSet
Validated: 33
EndChar

StartChar: chrFour
Encoding: 4 62980 5
Width: 444
Flags: W
VStem: 185 22<619.234 738> 281 36<118.323 257>
LayerCount: 2
Back
Fore
SplineSet
185 738 m 25
 207 738 l 25
 207 738 201 412 197 396 c 0
 193 380 145 100 145 100 c 25
 277 317 l 25
 223 328 l 25
 235 364 l 25
 375 372 l 25
 381 350 l 25
 323 322 l 25
 323 322 315 260 317 242 c 0
 319 224 315 104 305 108 c 0
 295 112 281 190 281 190 c 25
 287 257 l 25
 287 257 173 84 157 62 c 0
 141 40 105 -132 105 -132 c 25
 68 -126 l 17
 68.04296875 -126 131.388671875 189 142 271 c 0
 152.57421875 352.708007812 168 557 185 738 c 25
EndSplineSet
Validated: 33
EndChar

StartChar: chrFive
Encoding: 5 62981 6
Width: 624
Flags: W
VStem: 68.0049 61.9925<-80.9889 12.6454> 68.0049 54.2991<-154.531 -111.994> 178.067 31.0066<417.866 548.215> 180.005 49.9902<571.74 748.788> 243.979 58.8917<154.572 236.867>
LayerCount: 2
Back
Fore
SplineSet
80.0049022365 -34 m 0x48
 105 94 143 236 154.004902236 312 c 0
 167.829813869 407.475022086 158.604640052 484.371623721 178.06707618 569.184276949 c 1x68
 180.181245909 623.844533571 180.004902236 670.196155828 180.004902236 724 c 0
 180.004902236 737.448743767 191.544543448 748.995097764 205 748.995097764 c 0
 218.448743767 748.995097764 229.995097764 737.455456552 229.995097764 724 c 2
 229.995097764 721.361063798 l 1x18
 235.180753914 674.664407518 238.312736236 605.710585614 227.29318644 560.098962183 c 0
 218.696876488 524.517503804 209.748098674 482.736516702 209.073720529 445.255268386 c 0
 207 330 177 192 165 116 c 0
 157.940718533 71.2912173743 130.516132625 23.722431552 129.997428137 -33.4899632615 c 0xa8
 130.065070958 -35.108823612 130.097018919 -36.7043335377 130.097018919 -38.2760117956 c 0
 130.097018919 -55.9367174947 126.177390601 -70.1789925122 123.317190509 -81.5227747216 c 1
 177 16 195.782861947 97.9286522164 243.979057586 201.795776385 c 0
 248.821283585 217.019721315 253.011889629 238.995097764 277 238.995097764 c 0
 299.11804383 238.995097764 302.870768499 218.776606999 302.870768499 196.124824301 c 0
 302.870768499 180.365783156 302.720703125 154.9140625 301 140 c 1
 365 222 435 328 508.838168533 416.420313249 c 0
 515.58089169 424.494642631 521.546453353 434.995097764 533 434.995097764 c 0
 546.448743767 434.995097764 557.995097764 423.455456552 557.995097764 410 c 0
 557.995097764 407.840407819 560.103962603 395.132241173 558.624023438 393.540039062 c 0
 507 338 325 116 273.23046875 31.5185546875 c 0
 268.21331117 23.3311766393 252.916015625 122.849609375 249 130 c 1
 228.14453125 54.3125 179 -36 122.304049618 -155.45094428 c 0
 119.637120038 -161.069815724 109.859414515 -163.529552047 99.9184037486 -163.529552047 c 0
 92.8956268966 -163.529552047 84.5013483331 -161.378248115 78.0900536618 -154.966953443 c 0
 68.7984765986 -145.67537638 68.0049022365 -135.781823051 68.0049022365 -128 c 0
 68.0049022365 -97.4368092283 74.5378239853 -61.9969305491 80.0049022365 -34 c 0x48
EndSplineSet
Validated: 524321
EndChar

StartChar: chrSix
Encoding: 6 62982 7
Width: 650
Flags: W
VStem: 393 36<-142.389 -42.1795>
LayerCount: 2
Back
Fore
SplineSet
105 56 m 9
 105 56 119 -2 109 -26 c 0
 99 -50 83.1005859375 -106.607421875 117 -104 c 0
 169 -100 311 70 355 162 c 0
 402.7890625 261.923828125 501.017578125 386.114257812 520 687 c 0
 525.428710938 773.048828125 557.020507812 729.612304688 558 723 c 9
 585 704 l 25
 585 704 513 336 501 278 c 0
 489 220 429 -144 429 -144 c 25
 393 -142 l 25
 393 -142 417 74 419 100 c 0
 421 126 457 268 457 268 c 25
 457 268 343 80 317 40 c 0
 291 0 169 -146 123 -138 c 0
 77 -130 53.513671875 -84.0830078125 63 -24 c 0
 75 52 63 -24 105 56 c 9
EndSplineSet
Validated: 33
EndChar

StartChar: chrSeven
Encoding: 7 62983 8
Width: 688
Flags: W
HStem: -121.984 49.8604<116.784 213.474>
VStem: 66.0049 49.9902<-70.7712 122.788> 362.005 77.9902<-115.485 -20.7587> 572.005 49.9902<119.643 225.922>
LayerCount: 2
Back
Fore
SplineSet
572.004882812 136 m 0
 583 184 604.090820312 243.732421875 593.217773438 272.840820312 c 1
 563.912109375 255.533203125 504.830078125 147.526367188 473.307617188 131.083984375 c 1
 462.296875 82.9013671875 439.995117188 13.03515625 439.995117188 -32 c 0
 439.995117188 -33.1162109375 439.920898438 -34.2333984375 439.772460938 -35.341796875 c 0
 435.047851562 -70.6025390625 425.163085938 -107.05859375 408.43359375 -134.877929688 c 0
 404.247070312 -141.838867188 395.735351562 -146.995117188 387 -146.995117188 c 0
 373.55078125 -146.995117188 362.004882812 -135.455078125 362.004882812 -122 c 0
 362.004882812 -43.1083984375 429.438476562 70.880859375 419 176 c 1
 400.923828125 82.3427734375 359.685546875 42.298828125 299 -20 c 0
 292.551757812 -26.619140625 262.275390625 -57.0166015625 253.008789062 -66.2822265625 c 0
 229.88671875 -89.404296875 209.084960938 -121.984375 162.432617188 -121.984375 c 0
 157.841796875 -121.984375 153.209960938 -121.004882812 148.328125 -121.004882812 c 0
 108.1953125 -121.004882812 76.55859375 -110.044921875 66.9921875 -76.9775390625 c 0
 66.333984375 -74.7021484375 66.0048828125 -72.3505859375 66.0048828125 -70 c 2
 66.0048828125 98 l 2
 66.0048828125 111.44921875 77.544921875 122.995117188 91 122.995117188 c 0
 104.44921875 122.995117188 115.995117188 111.455078125 115.995117188 98 c 2
 115.995117188 -65.162109375 l 1
 120.989257812 -70.8486328125 137.49609375 -71.0048828125 151 -71.0048828125 c 0
 154.982421875 -71.0048828125 159.819335938 -72.1240234375 163.336914062 -72.1240234375 c 0
 201.549804688 -72.1240234375 241 -24 273 0 c 1
 369.120117188 104.08984375 407 234 465.567382812 379.73046875 c 0
 504.297851562 476.102539062 533.65625 621.184570312 578.200195312 720.265625 c 0
 581.893554688 728.48046875 591.078125 734.995117188 601 734.995117188 c 0
 617.838867188 734.995117188 631.536132812 716.94140625 623.799804688 699.734375 c 0
 600.149414062 647.127929688 573 554 551.700195312 499.576171875 c 0
 518.342773438 414.345703125 500.686523438 300.733398438 485.720703125 200.291992188 c 1
 530.34375 226.732421875 547 302 587 304.995117188 c 0
 663.987304688 310.759765625 621.995117188 191.053710938 621.995117188 136 c 0
 621.995117188 103.959960938 564.807617188 104.578125 572.004882812 136 c 0
EndSplineSet
Validated: 524321
EndChar

StartChar: chrEight
Encoding: 8 62984 9
Width: 964
Flags: W
HStem: -220.995 49.6074<351.808 397.753> -156.995 30.0322<134.811 201.217> 387.002 50.29<678.955 780.649>
VStem: 63 36.8867<-97.5334 68.4754> 504.005 49.9902<519.613 653.6> 506.005 55.9873<654.065 727.886>
LayerCount: 2
Back
Fore
SplineSet
404.004882812 240 m 1xf8
 404.004882812 271.284179688 418.62890625 298.8359375 424.711914062 323.920898438 c 0
 433.52734375 360.279296875 448.655273438 396.6171875 454.2890625 433.772460938 c 0
 456.216796875 446.481445312 460.864257812 452.91796875 463.9765625 461.485351562 c 0
 464.044921875 474.900390625 469.421875 484.999023438 471.967773438 490.028320312 c 0
 479.646484375 505.1953125 484.04296875 525.118164062 486.004882812 542.087890625 c 0
 486.04296875 563.5 496.439453125 574.5859375 497.5859375 595.490234375 c 0
 498.041015625 603.782226562 504.004882812 627.895507812 504.004882812 640 c 0xf8
 504.004882812 648.276367188 506.004882812 654.100585938 506.004882812 660 c 0
 506.004882812 669.625976562 509.189453125 672.782226562 512.220703125 678.549804688 c 0
 514.42578125 701.49609375 521.397460938 716.331054688 527.061523438 735.212890625 c 0
 529.989257812 744.971679688 539.837890625 752.995117188 551 752.995117188 c 0
 564.44921875 752.995117188 575.995117188 741.455078125 575.995117188 728 c 0
 575.995117188 725.567382812 575.642578125 723.135742188 574.938476562 720.787109375 c 0
 570.307617188 705.353515625 564.96875 690.918945312 561.9921875 673.526367188 c 0xf4
 561.879882812 662.918945312 558.767578125 659.40625 555.708007812 653.803710938 c 0
 555.313476562 649.484375 553.995117188 643.032226562 553.995117188 640 c 0
 553.995117188 628.125 553.138671875 612.021484375 548.16796875 600.563476562 c 0
 547.344726562 593.849609375 547.551757812 585.493164062 545.893554688 576.904296875 c 0
 545.0390625 564.07421875 538.015625 551.208007812 535.990234375 541.307617188 c 0
 535.692382812 518.05859375 527.870117188 500.8203125 523.109375 483.385742188 c 0
 520.583007812 474.129882812 513.995117188 466.333007812 513.995117188 460 c 0
 513.995117188 445.510742188 506.569335938 436.029296875 503.688476562 426.077148438 c 0
 497.366210938 384.540039062 483.088867188 351.288085938 473.838867188 314.313476562 c 0
 471.721679688 289.836914062 456.78515625 262.627929688 453.977539062 238.5859375 c 0
 453.37109375 214.110351562 439.37109375 194.668945312 432.21875 176.72265625 c 0
 426.770507812 163.052734375 412.734375 73.70703125 407 60 c 1
 415.72265625 120.626953125 569 266.995117188 569 266.995117188 c 2
 569.209960938 266.995117188 l 1
 581.026367188 304.528320312 597.499023438 331.815429688 614.7109375 364.243164062 c 1
 572.0390625 355.514648438 l 2
 570.377929688 355.174804688 568.688476562 355.004882812 567 355.004882812 c 0
 553.55078125 355.004882812 542.004882812 366.544921875 542.004882812 380 c 0
 542.004882812 391.94921875 551.099609375 402.263671875 561.9609375 404.485351562 c 0
 607.94140625 413.881835938 653.83984375 423.359375 700.068359375 432.506835938 c 0
 708.0625 434.10546875 710.08203125 437.291992188 722.463867188 437.291992188 c 0
 723.896484375 437.291992188 725.419921875 437.203125 727.033203125 436.995117188 c 0
 731.900390625 437.111328125 736.943359375 437.600585938 742.591796875 437.600585938 c 0
 764.064453125 437.600585938 781.997070312 427.532226562 781.997070312 406.083007812 c 0
 781.997070312 392.209960938 770.453125 381.004882812 757 381.004882812 c 0
 750.987304688 381.004882812 744.974609375 383.158203125 740.223632812 387.46484375 c 0
 735.68359375 387.393554688 731.423828125 386.982421875 726.557617188 386.982421875 c 0
 725.987304688 386.982421875 725.403320312 386.989257812 724.806640625 387.001953125 c 0
 721.67578125 385.90625 715.98046875 384.702148438 708.0546875 383.1171875 c 2
 678.493164062 377.205078125 l 1
 666.426757812 355.649414062 650.096679688 323.815429688 637.440429688 300.909179688 c 0
 624.244140625 270.81640625 601.752929688 231.12109375 601.752929688 196.41796875 c 0
 601.752929688 195.608398438 601.770507812 194.786132812 601.8046875 193.948242188 c 1
 606.380859375 195.583984375 608.545898438 198.127929688 612.703125 199.5859375 c 0
 639.337890625 208.923828125 729.4453125 295.876953125 747.119140625 319.162109375 c 0
 768.22265625 346.775390625 801.525390625 361.098632812 841.26953125 361.098632812 c 0
 856.526367188 361.098632812 871.538085938 357.432617188 883.598632812 345.372070312 c 0
 897.40234375 331.568359375 900.166015625 314.004882812 900.166015625 294.51171875 c 0
 900.166015625 269.912109375 885.037109375 253.384765625 878.502929688 245.380859375 c 0
 865.760742188 229.774414062 854.596679688 187.004882812 829 187.004882812 c 0
 815.55078125 187.004882812 804.004882812 198.544921875 804.004882812 212 c 0
 804.004882812 234.55078125 844.206054688 286.572265625 841 308 c 0
 829.44921875 385.197265625 669 174 591 130 c 1
 580.083984375 140.916015625 551.783203125 177.366210938 551.783203125 195.950195312 c 0
 551.783203125 199.467773438 491 126 435 44 c 0
 423.75390625 27.5322265625 344.006835938 -160.239257812 350.111328125 -165.389648438 c 0
 350.633789062 -165.830078125 351.203125 -166.325195312 351.807617188 -166.875976562 c 2
 377.37109375 -171.387695312 l 2
 388.578125 -173.365234375 397.995117188 -183.82421875 397.995117188 -196 c 0
 397.995117188 -209.44921875 386.455078125 -220.995117188 373 -220.995117188 c 0
 371.537109375 -220.995117188 370.073242188 -220.8671875 368.62890625 -220.612304688 c 2
 334.62890625 -214.612304688 l 2
 328.106445312 -213.461914062 321.858398438 -209.311523438 318.247070312 -203.946289062 c 0
 292.438476562 -180.772460938 299.39453125 -148.961914062 311.740234375 -108.024414062 c 0
 320.55859375 -78.7880859375 342.750976562 -11.0546875 359 26 c 1
 327.421875 -16.2978515625 277.529296875 -80.568359375 240.240234375 -116.10546875 c 0
 235.528320312 -120.594726562 230.418945312 -124.133789062 224.689453125 -129.86328125 c 0
 216.579101562 -137.973632812 197.875 -156.995117188 173 -156.995117188 c 0
 147.608398438 -156.995117188 128.260742188 -147.91015625 112.579101562 -140.729492188 c 0
 72.962890625 -122.590820312 63 -89.5263671875 63 -38 c 0
 63 0.884765625 44.509765625 68.9951171875 87 68.9951171875 c 0
 109.6796875 68.9951171875 115.682617188 45.369140625 108.509765625 25.490234375 c 0
 101.521484375 6.12109375 99.88671875 -33.99609375 99.88671875 -54.8408203125 c 0
 99.88671875 -95.85546875 142.322265625 -125.484375 180.813476562 -126.962890625 c 1
 211.686523438 -120.166015625 326.120117188 41.1220703125 339.286132812 75.9736328125 c 0
 345.844726562 98.0537109375 354.986328125 121.01953125 364.403320312 143.6875 c 1
 363.467773438 156.318359375 366.702148438 165.678710938 375.97265625 171.342773438 c 1
 385.573242188 194.345703125 395.5390625 216.407226562 404.004882812 240 c 1xf8
EndSplineSet
Validated: 524325
EndChar

StartChar: chrNine
Encoding: 9 62985 10
Width: 1068
Flags: W
HStem: 415.998 46.9971<695.884 763.771>
VStem: 103.113 48.8818<25.4472 97.448> 420 22.251<-133.176 -82.7889> 506.377 49.6182<570.085 751.448>
LayerCount: 2
Back
Fore
SplineSet
127 104.995117188 m 0
 133.399414062 104.995117188 139.799804688 102.555664062 144.677734375 97.677734375 c 0
 149.555664062 92.7998046875 151.995117188 86.3994140625 151.995117188 80 c 0
 151.995117188 77.509765625 151.625976562 75.01953125 150.88671875 72.619140625 c 2
 150.88671875 72.619140625 114 -0 113.227539062 -49.7744140625 c 24
 112 -81 125.944335938 -121.626953125 146 -112 c 24
 223.944335938 -73.626953125 299.09375 41.8203125 299.09375 41.8203125 c 1
 299.09375 41.8203125 395.762695312 182.791992188 434.060546875 282.241210938 c 0
 521 508 506.376953125 738.309570312 506.376953125 738.309570312 c 2
 508.331054688 749.548828125 518.8046875 758.995117188 531 758.995117188 c 0
 537.399414062 758.995117188 543.799804688 756.555664062 548.677734375 751.677734375 c 0
 553.555664062 746.799804688 555.995117188 740.399414062 555.995117188 734 c 0
 555.995117188 732.921875 555.92578125 731.84375 555.787109375 730.772460938 c 0
 527.794921875 516.102539062 500.856445312 300.376953125 471.458984375 87.111328125 c 1
 481.749023438 113.196289062 l 2
 481.962890625 113.73828125 482.196289062 114.2734375 482.44921875 114.802734375 c 1
 463.354976835 103.677011881 621.589362778 319.248186971 582.198242188 378.59765625 c 1
 573.232421875 381.958984375 558.211726592 394.91373976 566.004882812 402 c 0
 588 422 708 450 739 462.995117188 c 0
 751.403124781 468.194473962 763.995117188 451.455540161 763.995117188 438 c 0
 763.995117188 428.802734375 758.309570312 420.009765625 750.880859375 415.998046875 c 2
 750.880859375 415.998046875 684 400 660.661132812 367.279296875 c 24
 633 328 631.750976562 248.42578125 631.750976562 248.42578125 c 1
 729.321289062 347.678710938 l 2
 735.914416716 354.269291014 768.822185354 368.995117188 785 368.995117188 c 0
 797.444992746 368.995117188 810.049804688 355.261684384 810.049804688 343.877929688 c 0
 810.049804688 324.521991692 793.696539574 313.858877434 783.079101562 300.981445312 c 0
 774.514648438 290.595703125 765.2890625 279.565429688 759.158203125 272.260742188 c 1
 760.774414062 259.333984375 l 1
 805.8482898 289.517294515 914 370 965 390.995117188 c 0
 991.143348531 401.757522405 1015.74675189 309.39128314 998.677734375 292.322265625 c 4
 993.799804688 287.444335938 987.399414062 285.004882812 981 285.004882812 c 0
 969.725585938 285.004882812 959.8046875 293.178710938 956.969726562 303.102539062 c 2
 950.391601562 326.125 l 1
 754.896484375 195.213867188 l 2
 750.70703125 192.408203125 745.853515625 191.004882812 741 191.004882812 c 0
 728.438476562 191.004882812 717.681640625 201.015625 716.19921875 212.877929688 c 2
 710.639648438 257.3515625 l 1
 648.678710938 194.321289062 l 2
 643.799804688 189.443359375 637.399414062 187.004882812 631 187.004882812 c 0
 625.206054688 187.004882812 619.412109375 189.00390625 614.747070312 193.002929688 c 2
 586.78515625 216.970703125 l 1
 586.78515625 216.970703125 529 143 507.928710938 93.98828125 c 24
 472 10 442.250976562 -123.196289062 442.250976562 -123.196289062 c 2
 439.533464131 -132.182618681 419.93359375 -148.372070312 420 -138 c 0
 421 18.9951171875 448 92 446.052734375 221.814453125 c 1
 415.940946817 134.886982223 398.963869257 62.4301971129 335.393554688 7.1240234375 c 1
 287.719276787 -40.2778300177 201.526149391 -172.995117188 119 -172.995117188 c 0
 26.145736571 -172.995117188 86.7104747262 34.0717381728 103.11328125 87.380859375 c 0
 106.088867188 97.052734375 115.901367188 104.995117188 127 104.995117188 c 0
EndSplineSet
Validated: 524321
EndChar

StartChar: chrTen
Encoding: 10 62986 11
Width: 1488
Flags: W
VStem: 374 4<-145.958 -66.1107>
LayerCount: 2
Back
Fore
SplineSet
149 160 m 9
 149 160 93 26 87 0 c 0
 81 -26 74.4619697111 -120.300202015 133 -98 c 0
 238 -58 338 22 395 158 c 0
 483.76953125 369.801757812 571 756 571 756 c 25
 610 755 l 25
 610 755 509 336 491 290 c 0
 473 244 439 92 439 92 c 1
 439 92 520.400212509 191.108035591 542 226 c 0
 568 268 631 370 631 370 c 1
 655 354 l 17
 650 326 577.364386604 228.542453583 587 190 c 0
 591 174 595 164 595 164 c 25
 595 164 647 194 667 228 c 0
 687 262 741 342 741 342 c 25
 773 332 l 25
 729 208 l 25
 729 208 725 190 741 190 c 0
 757 190 791 218 807 240 c 0
 823 262 877 348 877 348 c 25
 907 334 l 25
 907.63733742 327.27729751 832.276908325 223.483962685 865 202 c 25
 865 202 909 212 923 232 c 0
 937 252 985 318 1013 372 c 0
 1041 426 1065 512 1065 512 c 25
 1065 512 961 490 939 482 c 0
 917 474 839 482 839 482 c 25
 845 510 l 25
 845 510 909 518 959 526 c 0
 1009 534 1079 558 1079 558 c 25
 1079 558 1107 620 1115 654 c 0
 1123 688 1151 744 1151 744 c 25
 1185 720 l 25
 1143 584 l 25
 1143 584 1154 566 1158 568 c 0
 1162 570 1432 626 1432 626 c 25
 1432 600 l 1
 1370 576 l 25
 1370 576 1324 572 1288 564 c 0
 1252 556 1122 524 1122 524 c 25
 1122 524 1086 408 1058 358 c 0
 1030 308 992 240 950 210 c 0
 908 180 878 162 854 160 c 0
 830 158 812 186 812 186 c 25
 812 186 778 144 744 148 c 0
 710 152 682 190 682 190 c 25
 682 190 653.075515104 138.04888705 608 136 c 0
 564 134 554 184 554 184 c 25
 554 184 533.986040654 155.614790102 498 100 c 0
 452.674061685 29.950822604 404.264964658 -66.110732498 378 -146 c 25
 378 -146 360 -88 374 -44 c 0
 388 0 408 90 408 90 c 25
 408 90 364 20 314 -24 c 0
 264 -68 208 -124 178 -130 c 0
 148 -136 88 -154 78 -126 c 0
 68 -98 48.9110278976 -6.66468524039 64 24 c 4
 126 150 112 160 149 160 c 9
EndSplineSet
Validated: 524321
EndChar

StartChar: chrEleven
Encoding: 11 62987 12
Width: 450
Flags: W
VStem: 343 42<429.758 685.93>
LayerCount: 2
Back
Fore
SplineSet
311 705 m 1
 233 586 l 25
 233 586 101 386 115 334 c 0
 129 282 133 272 163 274 c 0
 193 276 245 292 269 320 c 0
 293 348 343 472 343 506 c 0
 343 540 346 612 344 626 c 0
 342 640 329 687 311 705 c 1
321 758 m 1
 321 758 393 714 385 542 c 0
 382.279296875 483.513671875 351 362 321 328 c 0
 291 294 227 242 227 242 c 25
 227 242 193 158 175 88 c 0
 155.575195312 12.4580078125 123 -154 123 -154 c 25
 63 -160 l 25
 63 -160 59 -96 65 -88 c 0
 71 -80 153 130 153 130 c 25
 169 225 l 25
 169 225 131 216 95 264 c 0
 59 312 81 408 99 454 c 0
 111.5390625 486.04296875 193 606 205 626 c 0
 217 646 269 732 281 736 c 0
 293 740 321 758 321 758 c 1
EndSplineSet
Validated: 524321
EndChar

StartChar: chrTwelve
Encoding: 12 62988 13
Width: 588
Flags: W
LayerCount: 2
Back
Fore
SplineSet
348 294 m 9
 348 294 440 421 446 457 c 0
 452 493 487 526 479 560 c 0
 471 594 481 600 459 602 c 0
 437 604 393 518 381 494 c 0
 369 470 334 392 348 294 c 9
191 772 m 1
 223 768 l 25
 223 768 225.8125 478.639648438 219 402 c 0
 211 312 122 -49 124 -47 c 0
 126 -45 303 226 303 226 c 25
 303 226 310 410 320 450 c 0
 330 490 413 652 457 646 c 0
 501 640 527 596 523 556 c 0
 519 516 349 228 349 228 c 25
 173 -26 l 25
 103 -142 l 25
 65 -136 l 1
 65 -136 165 204 185 380 c 0
 194.551757812 464.051757812 183 592 191 772 c 1
EndSplineSet
Validated: 524321
EndChar

StartChar: chrThirteen
Encoding: 13 62989 14
Width: 1000
LayerCount: 2
Back
Fore
SplineSet
630 446 m 25
 630 446 686 502 702 550 c 0
 718 598 722 698 722 698 c 25
 722 698 682 666 658 588 c 0
 634 510 641 501 630 446 c 25
218 750 m 25
 218 750 176 392 168 330 c 0
 157.465009043 248.353820081 104 -74 104 -74 c 5
 106 -74 228 106 252 156 c 0
 276 206 416 494 426 500 c 0
 436 506 466 498 466 496 c 0
 466 485.931989668 389.599609375 338.412109375 408 333 c 24
 440 323 466 326 504 344 c 0
 542 362 586 412 586 412 c 25
 586 412 574 522 602 590 c 0
 630 658 680 744 722 742 c 0
 764 740 774 602 752 554 c 0
 730 506 666 404 604 366 c 0
 542 328 488 270 450 274 c 0
 412 278 364 304 364 304 c 25
 364 304 290 156 260 96 c 0
 230 36 102 -166 92 -172 c 0
 82 -178 58 -184 54 -178 c 0
 50 -172 103.997419721 141.183744245 120 242 c 0
 140 368 190 758 190 758 c 1
 204 756 207 753 218 750 c 25
EndSplineSet
Validated: 524321
EndChar

StartChar: chrFourteen
Encoding: 14 62990 15
Width: 1040
Flags: W
HStem: 259.905 49.9795<679.554 754.037>
VStem: 62.0049 95.8945<-141.691 -90.4438> 136.034 51.9619<447.708 684.471>
LayerCount: 2
Back
Fore
SplineSet
871 424 m 9x80
 871 424 907 510 931 568 c 0
 955 626 987 726 973 726 c 0
 959 726 911 654 889 606 c 0
 867 558 863 486 871 424 c 9x80
113 -88 m 1
 155.767578125 -22.9404296875 489.767578125 519.059570312 511.767578125 530.0546875 c 0
 549.05078125 548.688476562 550.796875 520.159179688 543.767578125 507.059570312 c 0
 499.767578125 425.059570312 454.921875 336.6796875 427.149414062 297.159179688 c 1
 534 232 665.916992188 436.077148438 689.204101562 487.763671875 c 5
 689.204101562 513.190429688 701.623046875 536.995117188 725 536.995117188 c 0
 756.380859375 536.995117188 750.03125 502.0546875 742.473632812 481.388671875 c 0
 739.275390625 472.645507812 648.6953125 309.884765625 689.600585938 309.884765625 c 0
 735.825195312 309.884765625 834.990234375 368.521484375 834.990234375 420.06640625 c 1
 824.41796875 451.783203125 826.004882812 486.880859375 826.004882812 530 c 1
 836.911132812 610.782226562 908.977539062 743.293945312 975 754 c 0
 1049 766 985.625976562 576.969726562 961 534 c 0
 896.708007812 421.81640625 825 262 689.565429688 259.905273438 c 0
 657.301757812 259.40625 641.350585938 283.586914062 634.184570312 307.655273438 c 1
 590.926757812 291.142578125 577.735351562 251.739257812 521 241.004882812 c 1
 483.482421875 241.004882812 435.93359375 235.1171875 407.369140625 262.241210938 c 1
 387.825195312 242.866210938 380.9375 237.577148438 362.899414062 212.862304688 c 0
 292.594726562 118.879882812 206.236328125 4.0654296875 157.899414062 -95.08203125 c 0
 145.1328125 -121.26953125 131.310546875 -174.995117188 87 -174.995117188 c 0
 73.55078125 -174.995117188 62.0048828125 -163.455078125 62.0048828125 -150 c 0xc0
 70.85546875 -89.0498046875 75.8076171875 -29.7001953125 90.7763671875 30.1806640625 c 0
 101.708007812 81.6572265625 101.248046875 146.84375 114.209960938 197.208007812 c 1
 131.114257812 328.749023438 136.034179688 499.655273438 136.034179688 660.247070312 c 0
 136.165039062 673.567382812 149.60546875 684.995117188 163 684.995117188 c 0
 176.393554688 684.995117188 187.258789062 673.404296875 187.99609375 660 c 0xa0
 203.438476562 379.326171875 159.017578125 139.081054688 113 -88 c 1
EndSplineSet
Validated: 524321
EndChar

StartChar: chrFifteen
Encoding: 15 62991 16
Width: 1113
Flags: W
LayerCount: 2
Back
Fore
SplineSet
862 422 m 25
 862 422 934 494 958 550 c 0
 982 606 1032 730 976 726 c 0
 920 722 898 646 884 594 c 0
 870 542 871 489 862 422 c 25
76 230 m 1
 90 288 118 774 164 772 c 0
 207.133789062 770.125 118.23828125 198.278320312 70.5244140625 -67.224609375 c 1
 217.373046875 121.7734375 250 156 420.588867188 539.103515625 c 0
 428.672851562 557.2578125 460.018554688 536.55859375 458.995117188 518 c 2
 458.995117188 518 376.702461427 345.9147423 423.159179688 337.98046875 c 0
 455.188324274 332.507182778 499.968969518 384.549072308 520.553710938 418.856445312 c 0
 536.706054688 445.77734375 554.484375 494.493164062 554.484375 494.493164062 c 2
 557.758789062 503.58984375 567.333007812 510.995117188 578 510.995117188 c 0
 591.15625 511.641601562 603.892578125 498.513671875 603.680664062 485.833984375 c 1
 558.787109375 341.606445312 l 1
 562.019434794 312.078966844 637.697265625 350.36328125 658 388 c 0
 680.474609375 429.662109375 699.146484375 498.14453125 699.146484375 498.14453125 c 2
 701.602539062 506.833007812 712.026367188 512.995117188 722 512.995117188 c 0
 735.220703125 513.631835938 747.939453125 500.408203125 747.8359375 487.772460938 c 1
 684 328 686.185600223 289.261374211 818.198242188 381.881835938 c 1
 817.552734375 397.185546875 816.775390625 441.202148438 816.775390625 468.104492188 c 0
 816.775390625 498.81640625 817.788085938 533.290039062 821.16796875 562.858398438 c 0
 828.041015625 622.997070312 861.209960938 688.515625 898.66015625 725.965820312 c 0
 923.076171875 750.381835938 954.6171875 769.020507812 991.880859375 769.020507812 c 0
 1026.54589844 772.444335938 1052.515625 736.783203125 1049.11230469 705.381835938 c 0
 1045.47558594 619.653320312 982.432617188 506.88671875 954.67578125 468.573242188 c 0
 846.108398438 330.397460938 746.991210938 286.046875 746.991210938 286.046875 c 1
 732.53515625 277.587890625 720.7734375 280.859375 702.68359375 280.859375 c 0
 666.95703125 277.7265625 632.80078125 288.293945312 635.658203125 317.296875 c 5
 620.020507812 299.698242188 597.83203125 279.626953125 566.05078125 278.435546875 c 0
 530.555664062 276.767578125 510.043945312 315.634765625 512.435546875 345.659179688 c 1
 486.674804688 324.420898438 460.561523438 297.637695312 419.166992188 294.913085938 c 0
 397.557617188 291.412109375 372.725585938 316.512695312 374.591796875 336.860351562 c 1
 290.939453125 165.74609375 154.872070312 -48.4833984375 63.677734375 -139.677734375 c 0
 -12.029296875 -215.383789062 76 230 76 230 c 1
EndSplineSet
Validated: 524321
EndChar

StartChar: chrSixteen
Encoding: 16 62992 17
Width: 501
Flags: W
HStem: -162.995 49.9902<122.604 231.418>
VStem: 71.125 51.8623<-112.203 39.3923>
LayerCount: 2
Back
Fore
SplineSet
196 309 m 29
 196 309 290 366 342 476 c 0
 409.87109375 619.57421875 395 708 366 714 c 0
 337.958007812 719.801757812 242 574 204 506 c 0
 161.595703125 430.119140625 150 394 152 360 c 0
 154 326 179 333 196 309 c 29
424.995117188 598 m 0
 418.326171875 455.1640625 281.05859375 318.809570312 213.369140625 251.709960938 c 1
 198.533203125 213.784179688 123.065429688 -2.017578125 122.987304688 -58.6455078125 c 0
 121.583984375 -113.33984375 116.490234375 -113.004882812 180 -113.004882812 c 1
 216.662109375 -108.184570312 238.350585938 -86.7724609375 264.694335938 -62.1044921875 c 0
 284.271484375 -42.458984375 437.865234375 140.94140625 363.802734375 155.350585938 c 1
 323.981445312 139.217773438 268.155273438 20.244140625 252.774414062 -10.3232421875 c 0
 249.069335938 -18.5087890625 239.896484375 -24.9951171875 230 -24.9951171875 c 0
 217.0859375 -25.69140625 204.291992188 -12.927734375 205.004882812 0 c 0
 207.334960938 17.421875 219.287109375 34.62890625 246.088867188 86.1484375 c 0
 270.228515625 126.177734375 305.202148438 205.375976562 363.9609375 205.375976562 c 0
 412.73046875 203.694335938 434.737304688 182.551757812 434.737304688 134.353515625 c 0
 434.737304688 130.661132812 435.038085938 126.340820312 435.038085938 122.395507812 c 0
 430.7734375 87.6083984375 417.49609375 69.73046875 401.838867188 38.9560546875 c 0
 363.092773438 -27.9296875 244.041992188 -162.995117188 178.51953125 -162.995117188 c 0
 118.2890625 -162.995117188 72.5888671875 -166.307617188 71.125 -103.928710938 c 1
 61.96484375 -0.123046875 142.05078125 192.416015625 165.744140625 267.091796875 c 1
 136.142578125 291.056640625 96.94140625 322.650390625 94.9833984375 375.126953125 c 0
 96.568359375 397.509765625 103.444335938 409.537109375 111.518554688 428.751953125 c 0
 159.75 529.060546875 255.479492188 670.846679688 318.342773438 734.829101562 c 0
 337.489257812 751.943359375 348.416992188 767.399414062 383.83984375 767.399414062 c 0
 446.640625 767.399414062 424.973632812 652.258789062 424.995117188 598 c 0
EndSplineSet
Validated: 524321
EndChar

StartChar: chrSeventeen
Encoding: 17 62993 18
Width: 859
Flags: W
HStem: 157.423 49.8428<383.892 492.318>
LayerCount: 2
Back
Fore
SplineSet
114 228 m 1
 114 228 214 154 346 384 c 0
 478 614 520 682 478 678 c 0
 436 674 282.926757812 583.260742188 232 504 c 0
 93.8662109375 289.013671875 114 228 114 228 c 1
534.986328125 687.681640625 m 0
 534.986328125 669.701171875 532.995117188 649.634765625 532.995117188 634 c 0
 529.736328125 514.940429688 387.387695312 368.631835938 372.86328125 267.415039062 c 1
 371.263671875 223.390625 394.728515625 216.130859375 429.581054688 207.265625 c 1
 585.737304688 207.265625 687.573242188 413.659179688 764.322265625 503.677734375 c 1
 779.447265625 518.802734375 816.9140625 504.037109375 806.995117188 486 c 0
 774 426 417.18359375 5.5400390625 296 -134.995117188 c 0
 287.5546875 -144.7890625 252.861121189 -120.065875599 261.004882812 -110 c 0
 350 0 422.384765625 83.8427734375 495.103515625 178.028320312 c 5
 470.509765625 175.02734375 437.08203125 158.421875 410.6171875 157.422851562 c 0
 355.265625 155.475585938 319.233398438 213.727539062 322.866210938 267.708007812 c 0
 322.866210938 269.705078125 322.889648438 271.680664062 322.930664062 273.633789062 c 1
 280.750976562 256.4765625 198.28125 175.004882812 160 175.004882812 c 0
 151.825195312 175.004882812 149.982421875 174.91796875 143.489257812 174.91796875 c 0
 96.8505859375 170.357421875 59.125 202.965820312 60.767578125 248.072265625 c 0
 59.39453125 350.036132812 122.9296875 417.432617188 167.116210938 485.750976562 c 0
 233.90625 587.0234375 333.024414062 703.134765625 479.137695312 716.375 c 1
 502.711914062 731.842773438 538.99609375 722.200195312 534.986328125 687.681640625 c 0
EndSplineSet
Validated: 524321
EndChar

StartChar: chrEighteen
Encoding: 18 62994 19
Width: 864
Flags: W
HStem: -162 56<488.43 650.714> 54 200<585 693> 382 46<320.799 447.283> 720 44<272.122 358.385>
VStem: 59 48<455.302 528.175> 393 46<-47.9795 196.331> 557 62<57.5447 144.38>
LayerCount: 2
Back
Fore
SplineSet
129 408 m 24
 94 405 58.6859797171 445.902701892 59 466 c 4
 60 530 205 764 315 764 c 0
 425 764 399 694 401 684 c 0
 403 674 317 484 319 452 c 0
 321 420 339 426 375 428 c 0
 411 430 437 433 469 471 c 0
 501 509 527 592 527 592 c 25
 527 592 457 584 429 562 c 0
 419.564453125 554.5859375 401.544921875 570.012695312 401 582 c 0
 399 626 549 646 581 662 c 0
 607.892578125 675.446289062 579 598 579 586 c 0
 579 574 441 292 439 104 c 0
 437 -84 491 -108 559 -106 c 0
 627 -104 743 -82 745 100 c 0
 747.001953125 282.165039062 744.926166516 203.495385407 689 200 c 0
 673 199 619 138 619 114 c 0
 619 90 609 54 585 54 c 0
 561 54 557 68 557 90 c 0
 557 112 625 254 693 254 c 0
 741 254 810 228 803 122 c 4
 800.334744133 81.6404111621 775.028320312 -159.775390625 577 -162 c 0
 399 -164 393 30 393 62 c 0
 393 94 451 396 451 396 c 25
 451 396 423 382 375 382 c 0
 288.004782601 382 263 421.744997139 263 482 c 25
 263 482 189 413 129 408 c 24
147 444 m 1
 147 444 361 546 359 688 c 0
 357 830 389 720 321 720 c 0
 253 720 107 524 107 492 c 0
 107 460 147 444 147 444 c 1
EndSplineSet
Validated: 524325
EndChar

StartChar: chrNineteen
Encoding: 19 62995 20
Width: 1160
Flags: W
HStem: 698 50<463.552 606.115>
VStem: 63 66<208.794 340.437> 335 68<144.823 195.984> 633 56<586.066 674.181>
LayerCount: 2
Back
Fore
SplineSet
63 272 m 0
 66 390 353.028040868 748.311623723 523 748 c 0
 587.031134761 747.882606398 688.76284031 690.791466697 689 650 c 0
 690 478 403 317.12890625 403 190 c 0
 403 142 396.883789062 141.502929688 439 144 c 0
 522.471679688 148.94921875 688.406198899 325.506253407 751 326 c 0
 781.065657395 326.237161119 807 322 823 302 c 0
 839 282 845 212 845 212 c 25
 863.434386944 231.355689193 1041.51443268 388.888944176 1053 396 c 25
 1101 366 l 25
 549 -146 l 25
 549 -146 525 -150 511 -148 c 0
 497 -146 469 -126 469 -126 c 25
 469 -126 645 24 655 36 c 0
 665 48 791 180 791 180 c 25
 791 180 804.490783099 265.100980339 769 268 c 0
 741.262108641 270.26573452 334.946918349 -91.898112385 335 156 c 4
 335.006480655 186.265491207 329 196 329 196 c 25
 329 196 247 146 195 146 c 0
 143 146 61.2028516093 201.312163298 63 272 c 0
181 200 m 0
 336 208 632.250171129 562.125770079 633 640 c 0
 633.355073055 676.87646842 573.147945483 698 519 698 c 0
 414.656701721 698 125.162015188 389.625589933 129 286 c 0
 131 232 133.063805952 197.525873856 181 200 c 0
EndSplineSet
Validated: 524321
EndChar

StartChar: chrTwenty
Encoding: 20 62996 21
Width: 868
Flags: W
HStem: -172 46<488.215 635.822> 130 43<646.286 752.549> 312 56<327.773 464.302> 700 44<276.06 365.184>
VStem: 63 48<428.267 508.044>
LayerCount: 2
Back
Fore
SplineSet
133 378 m 0
 98 378 63.8033476285 425.916309289 63 446 c 0
 61 496 209 744 319 744 c 0
 429 744 403 674 405 664 c 0
 407 654 321 434 323 402 c 0
 325 370 353 367 389 368 c 0
 455 370 466 383 498 421 c 0
 530 459 561 542 561 542 c 25
 561 542 461 544 433 542 c 0
 421 541 436 560 435 572 c 0
 433 616 717 600 715 552 c 0
 714 522 613 548 613 536 c 0
 613 524 441 150 423 84 c 0
 379 -80 505 -126 573 -126 c 0
 641.029296875 -126 737.693359375 -41.659179688 749 80 c 0
 751.982255463 112.088996658 769.026367188 131 693 130 c 0
 636.99609375 129.263671875 628.098632812 77.4521484375 623 54 c 0
 520.85546875 -415.865234375 495.934570312 173 697 173 c 0
 775 173 809 162 807 122 c 0
 804.98046875 81.6025390625 759.028320312 -169.775390625 561 -172 c 0
 383 -174 357 -30 357 2 c 0
 357 34 465 324 465 324 c 25
 465 324 425.997556473 311.51567306 378 312 c 0
 278.8984375 313 267 376.567382812 267 432 c 9
 267 432 188 378 133 378 c 0
151 424 m 0
 292.427734375 431.857421875 449.833007812 700 325 700 c 0
 257 700 111 504 111 472 c 0
 111 440 126.830078125 422.657226562 151 424 c 0
EndSplineSet
Validated: 524325
EndChar

StartChar: chrThirty
Encoding: 21 62997 22
Width: 808
Flags: W
HStem: 231 53<454.143 579.719>
LayerCount: 2
Back
Fore
SplineSet
519 231 m 4
 342.874350538 231 336.412211783 -26.014808092 277 -90 c 29
 277 -90 345 -96 461 -8 c 4
 577 80 594.176757812 126.0078125 594 166 c 4
 593.799804688 211.080078125 567.374023438 231 519 231 c 4
725 740 m 5
 747 705 l 29
 747 705 483 514 407 424 c 4
 331 334 113 82 123 -34 c 4
 126.134765625 -70.361328125 119 -74 165 -88 c 4
 226.227539062 -106.634765625 227 -82 227 -82 c 5
 264.808634601 28.9322870822 369.074016395 286.188628696 531 284 c 4
 573.29967913 283.428267845 650 226 647 176 c 4
 644.005385464 126.089757727 554 -10 480 -52 c 4
 406 -94 281.225585938 -145.875976562 209 -144 c 4
 132 -142 63.25 -95.9921875 61 -24 c 4
 57 104 299.991210938 391.026367188 355 448 c 4
 467 564 529 604 725 740 c 5
EndSplineSet
Validated: 524321
EndChar

StartChar: chrForty
Encoding: 22 62998 23
Width: 808
Flags: W
HStem: 231 53<454.143 579.719> 705 35<725 747>
LayerCount: 2
Back
Fore
SplineSet
214 550 m 1
 214 550 724 740 725 740 c 0
 726 740 750 708 747 705 c 0
 744 702 248 518 248 518 c 25
 214 550 l 1
519 231 m 0
 342.874350538 231 336.412211783 -26.014808092 277 -90 c 25
 277 -90 345 -96 461 -8 c 0
 577 80 594.176757812 126.0078125 594 166 c 0
 593.799804688 211.080078125 567.374023438 231 519 231 c 0
725 740 m 1
 747 705 l 25
 747 705 483 514 407 424 c 0
 331 334 113 82 123 -34 c 0
 126.134765625 -70.361328125 119 -74 165 -88 c 0
 226.227539062 -106.634765625 227 -82 227 -82 c 1
 264.808634601 28.9322870822 369.074016395 286.188628696 531 284 c 0
 573.29967913 283.428267845 650 226 647 176 c 0
 644.005385464 126.089757727 554 -10 480 -52 c 0
 406 -94 281.225585938 -145.875976562 209 -144 c 0
 132 -142 63.25 -95.9921875 61 -24 c 0
 57 104 299.991210938 391.026367188 355 448 c 0
 467 564 529 604 725 740 c 1
EndSplineSet
Validated: 524325
EndChar

StartChar: chrFifty
Encoding: 23 62999 24
Width: 738
Flags: W
HStem: 236 42<436.113 513.95>
VStem: 63 52<-85.75 45.5327>
LayerCount: 2
Back
Fore
SplineSet
345 662 m 25
 302.481445312 625.44140625 188.826171875 540.405273438 145 506 c 25
 113 536 l 25
 113 536 165 580 225 618 c 0
 285 656 395 770 395 770 c 25
 431 754 l 25
 353 594 l 25
 353 594 439 626 455 638 c 0
 471 650 582.573242188 760 625 760 c 0
 667 760 673 734 673 734 c 25
 673 734 525 602 401 442 c 0
 277 282 118 70 115 -24 c 0
 113.012695312 -86.2666015625 160.8984375 -113.875976562 197 -116 c 0
 231 -118 215 -110 227 -106 c 25
 227 -106 243 22 277 88 c 0
 311 154 373 280 493 278 c 0
 563.018841436 276.833019309 575 226 573 202 c 0
 571 178 545 68 503 14 c 0
 465.655273438 -34.0146484375 287 -160 219 -160 c 0
 151 -160 63 -104 63 -40 c 0
 63 177.452235492 382.873190149 492.25046109 475 610 c 25
 475 610 413 578 391 566 c 0
 369 554 277 488 277 488 c 25
 277 488 271 522 273 528 c 0
 275 534 345 662 345 662 c 25
273 -94 m 25
 273 -94 387 -53 457 35 c 0
 527.240817886 123.302742485 545.660650946 236 481 236 c 0
 447 236 389 178 365 142 c 0
 319.420486843 73.6307302645 290.09782796 -37.5771677333 273 -94 c 25
EndSplineSet
Validated: 524321
EndChar

StartChar: chrSixty
Encoding: 24 63000 25
Width: 1000
HStem: -146 58<93.8906 177.584> 0 21G<391 477 641 735>
LayerCount: 2
Back
Fore
SplineSet
808 126 m 25
 808 126 874 170 876 216 c 4
 877.998112317 261.956583284 874 314 860 312 c 0
 846 310 788 256 792 216 c 0
 796 176 798 161 808 126 c 25
136 248 m 25
 136 248 86 108 82 68 c 0
 78 28 57.9111850962 -89.3348135817 138 -88 c 0
 198 -87 370 142 402 246 c 0
 434 350 563.917098198 756.006908484 540 758 c 4
 516 760 590 762 592 760 c 0
 594 758 528 416 512 364 c 0
 496 312 416 108 416 88 c 0
 416 68 434 56 452 60 c 0
 470 64 589 170 590 204 c 4
 590.999567754 237.985303652 674 204 674 204 c 25
 674 204 600 146 606 116 c 0
 612 86 628 48 688 52 c 0
 748 56 774 72 774 72 c 25
 768 110 l 25
 768 110 736 140 738 194 c 0
 740 248 800 350 860 350 c 0
 900.049968789 350 920.676431898 304.039937904 924 242 c 0
 930 130 782 0 688 0 c 0
 594 0 568 86 568 86 c 25
 568 86 520 0 434 0 c 0
 348 0 362 66 362 66 c 25
 362 66 194 -146 136 -146 c 4
 78 -146 23 -68 24 44 c 4
 25.002507816 156.280875389 72 250 72 250 c 25
 136 248 l 25
EndSplineSet
Validated: 524321
EndChar

StartChar: chrSeventy
Encoding: 25 63001 26
Width: 912
Flags: W
HStem: -152 58<238.001 288.287> 606 68<168.882 273.582> 724 42<739.899 798.089>
VStem: 798 44<598.686 723.335>
LayerCount: 2
Back
Fore
SplineSet
382 184 m 25
 382 184 308 128 284 78 c 0
 259.788085938 27.5595703125 214.282403728 -94.5306344775 250 -94 c 4
 306.202148438 -93.1650390625 372.428710938 53.857421875 368 76 c 0
 366 86 377 142 382 184 c 25
662 464 m 25
 662 464 736 512 768 574 c 0
 800 636 798 672 798 686 c 0
 798 700 802 724 780 724 c 0
 704.416015625 724 679.9921875 544.962890625 662 464 c 25
66 544 m 0
 68.1806640625 584.140625 174 672 224 674 c 0
 274 676 284.037109375 621.392578125 322 624 c 0
 489.153320312 635.481445312 542 806 538 662 c 0
 537.333984375 638.008789062 432 320 440 310 c 0
 448 300 600 406 600 406 c 25
 600 406 638 570 650 606 c 0
 662 642 726 768 766 766 c 0
 806 764 842 742 842 688 c 0
 842 634 788 464 612 364 c 0
 489.483398438 294.388671875 430 232 430 232 c 25
 430 232 430 90 396 26 c 0
 362 -38 306.012695312 -151.545898438 242 -152 c 4
 198.004900672 -152.312098143 197.34765625 -116.03125 198 -58 c 0
 200 120 408 290 410 292 c 0
 412 294 448 486 456 510 c 0
 464 534 482 648 482 648 c 25
 482 648 378 580 318 580 c 0
 258 580 276.038085938 606 224 606 c 0
 159 606 62.4326171875 478.327148438 66 544 c 0
EndSplineSet
Validated: 524321
EndChar

StartChar: chrEighty
Encoding: 26 63002 27
Width: 1114
Flags: W
HStem: -154 56<133.286 231.638> -50 58<546.436 632.082> 430 40<833.476 873.7> 594 28<996.174 1054>
LayerCount: 2
Back
Fore
SplineSet
860 470 m 4
 1016.31933594 470 844 -50 598 -50 c 4
 532 -50 480 2 478 38 c 0
 476 74 502 162 502 162 c 25
 502 162 402 -14 356 -54 c 0
 310 -94 204.052734375 -154 166 -154 c 0
 98 -154 63.451171875 -72.2177734375 64 -36 c 0
 65 30 172 164 198 160 c 0
 224 156 234 152 236 134 c 0
 238 116 218 114 218 114 c 25
 176.94921875 91.8955078125 128 60.5712890625 124 -14 c 0
 122.071289062 -49.9482421875 123.958007812 -98 172 -98 c 0
 248 -98 376 32 444 156 c 0
 512 280 622 542 622 542 c 25
 396 512 l 25
 396 512 362 532 360 540 c 0
 358 548 643 588 643 588 c 25
 700 768 l 25
 734 764 l 25
 684 591 l 25
 1054 622 l 25
 1054 594 l 25
 674 548 l 25
 534 154 l 25
 534 154 516 86 528 60 c 0
 540 34 557.943955571 7.56891083002 592 8 c 0
 750 10 658 470 860 470 c 4
746 96 m 0
 836 184 917.965817061 427.934472765 856 430 c 0
 794.251903169 432.058269894 703.974365707 54.9082686918 746 96 c 0
EndSplineSet
Validated: 524321
EndChar

StartChar: chrNinety
Encoding: 27 63003 28
Width: 874
Flags: W
HStem: 130 42<692.282 757.21> 232 50<694.01 733.239> 418 34<96.7781 191.778> 712 38<606.41 675.14> 724 32<232.331 288.479>
VStem: 528 46<93.4126 250> 660 30<175.058 249.963>
LayerCount: 2
Back
Fore
SplineSet
408 -112 m 25xe6
 408 -112 467.8671875 -97.009765625 502 0 c 0
 540 108 528 250 528 250 c 25
 504.373046875 212.099609375 391 36.7021484375 390 -48 c 0
 389.763671875 -67.9990234375 401 -87 408 -112 c 25xe6
142 418 m 1024
280 506 m 25
 280 506 202 418 142 418 c 0
 82 418 61.6015625 431.75390625 62 464 c 0
 64 626 192 756 254 756 c 0xee
 316 756 352 692.052734375 352 654 c 0
 352 616 310 506 314 472 c 0
 318 438 312 356 380 362 c 0
 448 368 526 418 526 418 c 25
 526 418 533.834960938 548.09765625 538 596 c 0
 546 688 603.973632812 751.525390625 636 750 c 0xf6
 678 748 717.0078125 724.602539062 718 622 c 0
 719.025390625 515.986328125 570 398 570 398 c 25
 564 334 l 25
 564 334 640 384 678 380 c 0
 716 376 808 314 810 262 c 0
 812 210 784 130 736 130 c 0
 688 130 660 178 660 214 c 0
 660 250 668 282 690 282 c 0
 712 282 734 270 734 260 c 0
 734 250 728 232 718 232 c 0
 708 232 694 250 694 250 c 25
 694 250 688 224 690 214 c 0
 692 204 688 172 714 172 c 0
 740 172 768 190 770 228 c 0
 772 266 736 338 688 340 c 0
 640 342 574 300 574 300 c 25
 574 175.361328125 578.682617188 -150 420 -150 c 0
 360 -150 348 -92 354 -46 c 0
 360 0 384 108 414 156 c 0
 444 204 528 296 528 296 c 25
 524 368 l 25
 524 368 420 326 380 326 c 0
 276.806640625 326 284.586914062 405.09375 280 506 c 25
558 434 m 25
 558 434 640 484 658 536 c 0
 676 588 714.024414062 712 642 712 c 0xf6
 600 712 586 666 570 586 c 0
 554 506 563 493 558 434 c 25
306 612 m 24
 322 641 296.061523438 723.272460938 268 724 c 0xee
 192.625 725.955078125 37.2919921875 452 116 452 c 0
 226.93359375 452 252 516 306 612 c 24
EndSplineSet
Validated: 524321
EndChar

StartChar: chrHundred
Encoding: 28 63004 29
Width: 944
Flags: W
HStem: -164 48<277.187 342.262> 368 42<261.348 406.695> 692 42<778.2 841.505>
VStem: 412 36<210.946 223.248 264 390>
LayerCount: 2
Back
Fore
SplineSet
214 492 m 25
 214 492 170 452 132 450 c 0
 94 448 60.04296875 483.83984375 62 522 c 0
 66 600 156 746 236 746 c 0
 276.049804688 746 322 698 318 668 c 0
 314 638 252 530 250 496 c 0
 248 462 246 410 310 410 c 0
 374 410 410 424 410 424 c 25
 414.349609375 542.526367188 410.338867188 771.82421875 540 772 c 0
 578.052734375 772.051757812 642 746 638 700 c 0
 634 654 590 516 542 472 c 0
 494 428 454 400 454 400 c 25
 448 264 l 25
 448 264 476 266 522 298 c 0
 568 330 628 372 628 372 c 1
 605.772460938 477.532226562 694.69140625 734 818 734 c 0
 864 734 886 698 884 658 c 0
 882.99609375 637.92578125 792 454 682 358 c 0
 649.963867188 330.041015625 450 214 450 214 c 25
 450 214 456 88 432 16 c 0
 408 -56 391.993164062 -165.493164062 302 -164 c 0
 220.98828125 -162.655273438 186.67578125 -18.1552734375 270 86 c 0
 326 156 412 226 412 226 c 25
 408 390 l 25
 408 390 380 366 328 368 c 0
 276 370 282 360 246 390 c 0
 210 420 226 452 214 492 c 25
414 176 m 1
 414 176 270 48 268 -2 c 0
 266 -52 266 -116 300 -116 c 0
 389.619140625 -116 404.311523438 115.176757812 414 176 c 1
664 400 m 1
 664 400 912 692 822 692 c 0
 789.750976562 692 722 628 706 584 c 0
 690 540 664 400 664 400 c 1
444 444 m 1
 481.990234375 464.868164062 592.928710938 558.108398438 600 672 c 0
 601.385742188 694.317382812 580 738 550 736 c 0
 520 734 498 700 476 664 c 0
 454 628 444 444 444 444 c 1
118 498 m 24
 162 460 204 530 230 570 c 0
 256 610 282 668 282 684 c 0
 282 700 254 718 244 716 c 0
 234 714 168 692 144 644 c 0
 120 596 70 540 118 498 c 24
EndSplineSet
Validated: 524321
EndChar

StartChar: chr10e3
Encoding: 29 63005 30
Width: 944
Flags: HWO
HStem: -164 48<277.187 342.262> 368 42<261.348 406.695> 692 42<773.98 851.273>
VStem: 410 44<264 390>
LayerCount: 2
Back
Fore
SplineSet
160 536 m 24
 198 564 242 654 218 656 c 0
 194 658 158 620 156 600 c 0
 154 580 139 521 160 536 c 24
214 492 m 25
 214 492 170 452 132 450 c 0
 94 448 60.04296875 483.83984375 62 522 c 0
 66 600 156 746 236 746 c 0
 276.049804688 746 322 698 318 668 c 0
 314 638 252 530 250 496 c 0
 248 462 246 410 310 410 c 0
 374 410 410 424 410 424 c 25
 414.349609375 542.526367188 410.338867188 771.82421875 540 772 c 0
 578.052734375 772.051757812 642 746 638 700 c 0
 634 654 590 516 542 472 c 0
 494 428 454 400 454 400 c 25
 448 264 l 25
 448 264 476 266 522 298 c 0
 568 330 628 372 628 372 c 1
 605.772460938 477.532226562 694.69140625 734 818 734 c 0
 864 734 886 698 884 658 c 0
 882.99609375 637.92578125 792 454 682 358 c 0
 649.963867188 330.041015625 450 214 450 214 c 25
 450 214 456 88 432 16 c 0
 408 -56 391.993164062 -165.493164062 302 -164 c 0
 220.98828125 -162.655273438 186.67578125 -18.1552734375 270 86 c 0
 326 156 412 226 412 226 c 25
 408 390 l 25
 408 390 380 366 328 368 c 0
 276 370 282 360 246 390 c 0
 210 420 226 452 214 492 c 25
414 176 m 1
 414 176 270 48 268 -2 c 0
 266 -52 266 -116 300 -116 c 0
 389.619140625 -116 404.311523438 115.176757812 414 176 c 1
684 420 m 24
 779 508 912 692 822 692 c 0
 789.750976562 692 718.570887191 633.427415708 706 604 c 0
 686 557.181640625 630 370 684 420 c 24
444 444 m 1
 481.990234375 464.868164062 592.928710938 558.108398438 600 672 c 0
 601.385742188 694.317382812 580 738 550 736 c 0
 520 734 498 700 476 664 c 0
 454 628 444 444 444 444 c 1
118 498 m 24
 162 460 204 530 230 570 c 0
 256 610 282 668 282 684 c 0
 282 700 254 718 244 716 c 0
 234 714 168 692 144 644 c 0
 120 596 70 540 118 498 c 24
EndSplineSet
EndChar

StartChar: chr10e6
Encoding: 30 63006 31
Width: 944
Flags: W
HStem: -164 48<277.187 342.262> 368 42<261.348 406.695> 692 42<773.98 851.273>
VStem: 410 44<264 390> 478 72<555.404 621.449>
LayerCount: 2
Back
Fore
SplineSet
490 542 m 1
 490 542 548 556 550 574 c 0
 552 592 574 606 546 624 c 0
 518 642 480 610 478 602 c 0
 476 594 490 542 490 542 c 1
160 536 m 24
 198 564 242 654 218 656 c 0
 194 658 158 620 156 600 c 0
 154 580 139 521 160 536 c 24
214 492 m 25
 214 492 170 452 132 450 c 0
 94 448 60.04296875 483.83984375 62 522 c 0
 66 600 156 746 236 746 c 0
 276.049804688 746 322 698 318 668 c 0
 314 638 252 530 250 496 c 0
 248 462 246 410 310 410 c 0
 374 410 410 424 410 424 c 25
 414.349609375 542.526367188 410.338867188 771.82421875 540 772 c 0
 578.052734375 772.051757812 642 746 638 700 c 0
 634 654 590 516 542 472 c 0
 494 428 454 400 454 400 c 25
 448 264 l 25
 448 264 476 266 522 298 c 0
 568 330 628 372 628 372 c 1
 605.772460938 477.532226562 694.69140625 734 818 734 c 0
 864 734 886 698 884 658 c 0
 882.99609375 637.92578125 792 454 682 358 c 0
 649.963867188 330.041015625 450 214 450 214 c 25
 450 214 456 88 432 16 c 0
 408 -56 391.993164062 -165.493164062 302 -164 c 0
 220.98828125 -162.655273438 186.67578125 -18.1552734375 270 86 c 0
 326 156 412 226 412 226 c 25
 408 390 l 25
 408 390 380 366 328 368 c 0
 276 370 282 360 246 390 c 0
 210 420 226 452 214 492 c 25
414 176 m 1
 414 176 270 48 268 -2 c 0
 266 -52 266 -116 300 -116 c 0
 389.619140625 -116 404.311523438 115.176757812 414 176 c 1
684 420 m 24
 779 508 912 692 822 692 c 0
 789.750976562 692 718.570887191 633.427415708 706 604 c 0
 686 557.181640625 630 370 684 420 c 24
444 444 m 1
 481.990234375 464.868164062 592.928710938 558.108398438 600 672 c 0
 601.385742188 694.317382812 580 738 550 736 c 0
 520 734 498 700 476 664 c 0
 454 628 444 444 444 444 c 1
118 498 m 24
 162 460 204 530 230 570 c 0
 256 610 282 668 282 684 c 0
 282 700 254 718 244 716 c 0
 234 714 168 692 144 644 c 0
 120 596 70 540 118 498 c 24
EndSplineSet
Validated: 524329
EndChar

StartChar: chr10e9
Encoding: 31 63007 32
Width: 944
Flags: W
HStem: -164 48<277.187 342.262> 368 42<261.348 406.695> 692 42<773.98 851.273>
VStem: 412 36<210.946 223.248 264 390>
LayerCount: 2
Back
Fore
SplineSet
490 542 m 5
 490 542 548 556 550 574 c 4
 552 592 574 606 546 624 c 4
 518 642 480 610 478 602 c 4
 476 594 490 542 490 542 c 5
718 516 m 28
 692 529 724.529594448 572.24298959 734 590 c 4
 742 605 794 642 794 642 c 29
 794 642 787.831054688 586.095703125 780 572 c 4
 770 554 745 503 718 516 c 28
160 536 m 28
 198 564 242 654 218 656 c 4
 194 658 158 620 156 600 c 4
 154 580 139 521 160 536 c 28
214 492 m 29
 214 492 170 452 132 450 c 4
 94 448 60.04296875 483.83984375 62 522 c 4
 66 600 156 746 236 746 c 4
 276.049804688 746 322 698 318 668 c 4
 314 638 252 530 250 496 c 4
 248 462 246 410 310 410 c 4
 374 410 410 424 410 424 c 29
 414.349609375 542.526367188 410.338867188 771.82421875 540 772 c 4
 578.052734375 772.051757812 642 746 638 700 c 4
 634 654 590 516 542 472 c 4
 494 428 454 400 454 400 c 29
 448 264 l 29
 448 264 476 266 522 298 c 4
 568 330 628 372 628 372 c 5
 605.772460938 477.532226562 694.69140625 734 818 734 c 4
 864 734 886 698 884 658 c 4
 882.99609375 637.92578125 792 454 682 358 c 4
 649.963867188 330.041015625 450 214 450 214 c 29
 450 214 456 88 432 16 c 4
 408 -56 391.993164062 -165.493164062 302 -164 c 4
 220.98828125 -162.655273438 186.67578125 -18.1552734375 270 86 c 4
 326 156 412 226 412 226 c 29
 408 390 l 29
 408 390 380 366 328 368 c 4
 276 370 282 360 246 390 c 4
 210 420 226 452 214 492 c 29
414 176 m 5
 414 176 270 48 268 -2 c 4
 266 -52 266 -116 300 -116 c 4
 389.619140625 -116 404.311523438 115.176757812 414 176 c 5
684 420 m 28
 779 508 912 692 822 692 c 4
 789.750976562 692 718.570887191 633.427415708 706 604 c 4
 686 557.181640625 630 370 684 420 c 28
444 444 m 5
 481.990234375 464.868164062 592.928710938 558.108398438 600 672 c 4
 601.385742188 694.317382812 580 738 550 736 c 4
 520 734 498 700 476 664 c 4
 454 628 444 444 444 444 c 5
118 498 m 28
 162 460 204 530 230 570 c 4
 256 610 282 668 282 684 c 4
 282 700 254 718 244 716 c 4
 234 714 168 692 144 644 c 4
 120 596 70 540 118 498 c 28
EndSplineSet
Validated: 524329
EndChar

StartChar: chr10e12
Encoding: 32 63008 33
Width: 944
Flags: W
HStem: -164 48<277.187 342.262> 368 42<261.348 406.695> 692 42<773.98 851.273>
VStem: 290 74<-41.042 29.5682> 412 36<210.946 223.248 264 390>
LayerCount: 2
Back
Fore
SplineSet
350 70 m 29
 350 70 288 10 290 0 c 0
 292 -10 290 -72 304 -70 c 0
 318 -68 362 -24 364 -12 c 0
 366 0 355 38 350 70 c 29
490 542 m 1
 490 542 548 556 550 574 c 0
 552 592 574 606 546 624 c 0
 518 642 480 610 478 602 c 0
 476 594 490 542 490 542 c 1
718 516 m 24
 692 529 724.529594448 572.24298959 734 590 c 0
 742 605 794 642 794 642 c 25
 794 642 787.831054688 586.095703125 780 572 c 0
 770 554 745 503 718 516 c 24
160 536 m 24
 198 564 242 654 218 656 c 0
 194 658 158 620 156 600 c 0
 154 580 139 521 160 536 c 24
214 492 m 25
 214 492 170 452 132 450 c 0
 94 448 60.04296875 483.83984375 62 522 c 0
 66 600 156 746 236 746 c 0
 276.049804688 746 322 698 318 668 c 0
 314 638 252 530 250 496 c 0
 248 462 246 410 310 410 c 0
 374 410 410 424 410 424 c 25
 414.349609375 542.526367188 410.338867188 771.82421875 540 772 c 0
 578.052734375 772.051757812 642 746 638 700 c 0
 634 654 590 516 542 472 c 0
 494 428 454 400 454 400 c 25
 448 264 l 25
 448 264 476 266 522 298 c 0
 568 330 628 372 628 372 c 1
 605.772460938 477.532226562 694.69140625 734 818 734 c 0
 864 734 886 698 884 658 c 0
 882.99609375 637.92578125 792 454 682 358 c 0
 649.963867188 330.041015625 450 214 450 214 c 25
 450 214 456 88 432 16 c 0
 408 -56 391.993164062 -165.493164062 302 -164 c 0
 220.98828125 -162.655273438 186.67578125 -18.1552734375 270 86 c 0
 326 156 412 226 412 226 c 25
 408 390 l 25
 408 390 380 366 328 368 c 0
 276 370 282 360 246 390 c 0
 210 420 226 452 214 492 c 25
414 176 m 1
 414 176 270 48 268 -2 c 0
 266 -52 266 -116 300 -116 c 0
 389.619140625 -116 404.311523438 115.176757812 414 176 c 1
684 420 m 24
 779 508 912 692 822 692 c 0
 789.750976562 692 718.570887191 633.427415708 706 604 c 0
 686 557.181640625 630 370 684 420 c 24
444 444 m 1
 481.990234375 464.868164062 592.928710938 558.108398438 600 672 c 0
 601.385742188 694.317382812 580 738 550 736 c 0
 520 734 498 700 476 664 c 0
 454 628 444 444 444 444 c 1
118 498 m 24
 162 460 204 530 230 570 c 0
 256 610 282 668 282 684 c 0
 282 700 254 718 244 716 c 0
 234 714 168 692 144 644 c 0
 120 596 70 540 118 498 c 24
EndSplineSet
Validated: 524329
EndChar

StartChar: chr10e15
Encoding: 33 63009 34
Width: 944
Flags: W
HStem: -162 50<273.948 345.358 723.724 792.281> 368 42<261.348 406.695> 692 42<778.2 841.505>
VStem: 410 44<264 390> 668 198<-18.2642 65>
LayerCount: 2
Back
Fore
SplineSet
751 -112 m 0
 807.005859375 -111.896484375 823.160565581 -33.9516103645 826 8 c 0
 829.533929978 60.2125295316 782 146 756 146 c 0
 730 146 730 62 726 46 c 0
 722 30 692.922851562 -112.107421875 751 -112 c 0
682 358 m 1
 682 358 692 292 732 238 c 0
 772 184 866 118 866 50 c 0
 866 -18.2641926635 842.03125 -162 778 -162 c 0
 714 -162 665.992612737 -115.332426849 668 -25 c 0
 670 65 708 183 708 183 c 25
 644 328 l 25
 682 358 l 1
214 492 m 25
 214 492 170 452 132 450 c 0
 94 448 60.04296875 483.83984375 62 522 c 0
 66 600 156 746 236 746 c 0
 276.049804688 746 322 698 318 668 c 0
 314 638 252 530 250 496 c 0
 248 462 246 410 310 410 c 0
 374 410 410 424 410 424 c 25
 414.349609375 542.526367188 410.338867188 771.82421875 540 772 c 0
 578.052734375 772.051757812 642 746 638 700 c 0
 634 654 590 516 542 472 c 0
 494 428 454 400 454 400 c 25
 448 264 l 25
 448 264 476 266 522 298 c 0
 568 330 628 372 628 372 c 1
 605.772460938 477.532226562 694.69140625 734 818 734 c 0
 864 734 886 698 884 658 c 0
 882.99609375 637.92578125 792 454 682 358 c 0
 649.963867188 330.041015625 450 214 450 214 c 25
 450 214 456 88 432 16 c 0
 408 -56 391.993164062 -165.493164062 302 -164 c 0
 220.98828125 -162.655273438 186.67578125 -18.1552734375 270 86 c 0
 326 156 412 226 412 226 c 25
 408 390 l 25
 408 390 380 366 328 368 c 0
 276 370 282 360 246 390 c 0
 210 420 226 452 214 492 c 25
414 176 m 1
 414 176 270 48 268 -2 c 0
 266 -52 266 -116 300 -116 c 0
 389.619140625 -116 404.311523438 115.176757812 414 176 c 1
664 400 m 1
 664 400 912 692 822 692 c 0
 789.750976562 692 722 628 706 584 c 0
 690 540 664 400 664 400 c 1
444 444 m 1
 481.990234375 464.868164062 592.928710938 558.108398438 600 672 c 0
 601.385742188 694.317382812 580 738 550 736 c 0
 520 734 498 700 476 664 c 0
 454 628 444 444 444 444 c 1
118 498 m 24
 162 460 204 530 230 570 c 0
 256 610 282 668 282 684 c 0
 282 700 254 718 244 716 c 0
 234 714 168 692 144 644 c 0
 120 596 70 540 118 498 c 24
EndSplineSet
Validated: 524325
EndChar

StartChar: chr10e18
Encoding: 34 63010 35
Width: 1340
Flags: W
HStem: -136 46<165.309 303.914> 426 30<208.667 223.944> 628 50<777.323 984.703>
VStem: 63 52<-32.4838 84.5245> 1000 51<518.01 611.971>
LayerCount: 2
Back
Fore
SplineSet
327 232 m 25
 279.917203003 222.038994302 114.451171875 111.583984375 115 33 c 0
 115.251953125 -3.1240234375 151.984375 -91.4033203125 219 -90 c 0
 410 -86 394.361014309 115.004554095 327 232 c 25
635 380 m 25
 635 380 843 432 879 458 c 0
 915 484 1000 504 1000 558 c 0
 1000 612 978.245117188 627.549804688 899 628 c 0
 727.230706949 628.975069208 658.722883324 536.57102994 635 380 c 25
305 491 m 9
 305 491 431.044921875 535.59765625 470 560 c 0
 554.74609375 613.086914062 573 704 502 718 c 0
 450.944335938 728.067382812 423 710 381 648 c 0
 339 586 320 555 305 491 c 9
201 456 m 1
 260 474 l 25
 290.961933774 573.311863049 356 751 481 752 c 0
 567.090218157 752.688721745 582.375253409 676.523313643 577 642 c 0
 562.845367203 551.089899514 392.888671875 481.721679688 303 451 c 25
 303 451 301.515625 389.071289062 309 368 c 0
 321.665039062 332.34375 353 278 353 278 c 25
 593 364 l 25
 593 364 607.734885607 507.148258762 639 556 c 0
 671 606 782.872070312 677.859375 876 678 c 0
 1005.78417969 678.196289062 1049.86954809 630.589087983 1051 548 c 0
 1052.48679127 439.377303031 672.972602252 350.353133849 633 334 c 1
 690 164 874 280 1039 362 c 0
 1082.72438967 383.729696686 1137 454 1177 454 c 0
 1217 454 1281.26945943 456.887321952 1285 444 c 0
 1318 330 1166 174 1121 174 c 9
 1107 208 l 17
 1215.46604768 265.458333198 1233.91043513 359.893833184 1259 416 c 9
 1259 416 1194.83984375 425.51953125 1173 405 c 0
 958 203 587.581837606 99.585007112 595 332 c 9
 375 248 l 25
 375 248 411 180 417 104 c 0
 428.22776095 -38.2183053679 351.20161644 -141.903225955 211 -136 c 0
 142.796238193 -133.128262661 61 -24 63 24 c 0
 68.8585459557 164.605102937 222 229 307 269 c 13
 307 269 281.182337649 320.292178951 271 346 c 0
 259.355032476 375.400590664 261 438 261 438 c 25
 211 426 l 25
 201 456 l 1
EndSplineSet
Validated: 524321
EndChar

StartChar: NameMe.36
Encoding: 36 63011 37
Width: 1208
Flags: WO
HStem: 18 62<621.001 690.5> 30 50<765.317 821.353> 412 42<321.5 500 568 612.1>
VStem: 64 58<-93.6321 26.9087> 1094 28<142 167.5>
LayerCount: 2
Back
Fore
SplineSet
152 228 m 25xb8
 198 212 l 25
 198 212 124 40 122 -14 c 0
 120 -68 120 -98 164 -96 c 0
 208 -94 348 38 398 128 c 0
 448.375976562 218.676757812 500 412 500 412 c 25
 262 408 l 25
 282 442 l 25
 282 442 516 454 518 454 c 0
 520 454 600 750 600 750 c 25
 644 734 l 25
 568 450 l 25
 862 474 l 25
 870 436 l 25
 560 416 l 25
 537.854492188 316.345703125 472 92 520 92 c 0
 580.92578125 92 612 229.50390625 612 230 c 0
 612 232 658 222 658 222 c 25
 641.16015625 181.584960938 579.70703125 78.9345703125 658 80 c 0xb8
 701.859375 80.5966796875 750 212 750 212 c 1
 804 220 l 25
 803.43359375 195.094726562 732.021484375 80 784 80 c 0
 829.630859375 80 898.505859375 211.060546875 912 234 c 25
 952 232 l 25
 952 232 938 194 924 160 c 0
 910 126 888 88 918 86 c 0
 948 84 974 114 992 136 c 0
 1010 158 1064 238 1086 236 c 0
 1108 234 1138 208 1138 208 c 25
 1122 136 l 25
 1094 142 l 25
 1092 204 l 25
 1077.95898438 186.569335938 998.39453125 60.640625 958 58 c 0
 925.819335938 55.896484375 864 68 864 68 c 25
 864 68 842 30 794 30 c 0x78
 746 30 730 56 730 56 c 25
 730 56 658 18 630 18 c 0
 602 18 576 64 576 64 c 25
 576 64 558 32 512 38 c 0
 466 44 442 102 442 102 c 25
 442 102 358 -20 322 -54 c 0
 286 -88 200 -150 164 -148 c 0
 128 -146 62 -98 64 -56 c 0
 66 -14 118 117 152 228 c 25xb8
EndSplineSet
Validated: 524321
EndChar

StartChar: NameMe.37
Encoding: 37 63012 38
Width: 766
Flags: W
HStem: 0 21G<192 257> 706 54<601.151 650.826>
VStem: 164 134<41.1494 127.509> 654 46<521.426 692.738>
LayerCount: 2
Back
Fore
SplineSet
312 592 m 1
 312 592 618 614 618 588 c 0
 618 562 608 548 582 546 c 0
 556 544 514 546 518 570 c 0
 522 594 312 592 312 592 c 1
476 508 m 1
 476 508 540 462 540 446 c 0
 540 430 492 356 468 358 c 0
 444 360 394 402 400 418 c 0
 406 434 476 508 476 508 c 1
354 342 m 1
 354 342 430 332 428 294 c 0
 426 256 386 174 354 180 c 0
 322 186 284 196 282 224 c 0
 280 252 354 342 354 342 c 1
192 0 m 1
 192 0 148 38 164 80 c 0
 180 122 220 204 240 188 c 0
 260 172 306 172 298 118 c 0
 290 64 260 0 254 0 c 0
 248 0 192 0 192 0 c 1
124 -106 m 24
 292 -27 412 144 466 226 c 0
 520 308 660 538 654 594 c 0
 648 650 678 706 636 706 c 0
 594 706 384 456 340 398 c 0
 296 340 158 108 130 68 c 0
 102 28 63 -135 124 -106 c 24
606 760 m 0
 683.9765625 758.083007812 701.247070312 612.90625 700 578 c 0
 694 410 263.983398438 -140.888671875 134 -138 c 0
 44 -136 68 -48 68 0 c 0
 68 98 484 763 606 760 c 0
EndSplineSet
Validated: 524325
EndChar
